<svg width="16" height="16" viewBox="0 0 16 16" fill="none" xmlns="http://www.w3.org/2000/svg">
    <path
        d="M0 4.21053C0 1.88512 1.88512 0 4.21054 0H11.7895C14.1149 0 16 1.88512 16 4.21053V11.7895C16 14.1149 14.1149 16 11.7895 16H4.21054C1.88512 16 0 14.1149 0 11.7895V4.21053Z"
        fill="#465FFF" />
    <path
        d="M0 4.21053C0 1.88512 1.88512 0 4.21054 0H11.7895C14.1149 0 16 1.88512 16 4.21053V11.7895C16 14.1149 14.1149 16 11.7895 16H4.21054C1.88512 16 0 14.1149 0 11.7895V4.21053Z"
        fill="#465FFF" />
    <g filter="url(#filter0_d_0_1)">
        <path
            d="M4.21191 4.21075C4.21191 3.74565 4.58895 3.36865 5.05401 3.36865C5.51911 3.36865 5.89615 3.74565 5.89615 4.21075V11.7897C5.89615 12.2548 5.51911 12.6318 5.05401 12.6318C4.58895 12.6318 4.21191 12.2548 4.21191 11.7897V4.21075Z"
            fill="white" />
    </g>
    <g filter="url(#filter1_d_0_1)">
        <path
            d="M7.37109 7.57843C7.37109 7.11336 7.74809 6.73633 8.21319 6.73633C8.67826 6.73633 9.05529 7.11336 9.05529 7.57843V11.789C9.05529 12.254 8.67826 12.6311 8.21319 12.6311C7.74809 12.6311 7.37109 12.254 7.37109 11.789V7.57843Z"
            fill="white" fill-opacity="0.9" />
    </g>
    <path
        d="M0 4.21053C0 1.88512 1.88512 0 4.21054 0H11.7895C14.1149 0 16 1.88512 16 4.21053V11.7895C16 14.1149 14.1149 16 11.7895 16H4.21054C1.88512 16 0 14.1149 0 11.7895V4.21053Z"
        fill="#465FFF" />
    <path
        d="M0 4.21053C0 1.88512 1.88512 0 4.21054 0H11.7895C14.1149 0 16 1.88512 16 4.21053V11.7895C16 14.1149 14.1149 16 11.7895 16H4.21054C1.88512 16 0 14.1149 0 11.7895V4.21053Z"
        fill="#465FFF" />
    <g filter="url(#filter2_d_0_1)">
        <path
            d="M4.21191 4.21075C4.21191 3.74565 4.58895 3.36865 5.05401 3.36865C5.51911 3.36865 5.89615 3.74565 5.89615 4.21075V11.7897C5.89615 12.2548 5.51911 12.6318 5.05401 12.6318C4.58895 12.6318 4.21191 12.2548 4.21191 11.7897V4.21075Z"
            fill="white" />
    </g>
    <g filter="url(#filter3_d_0_1)">
        <path
            d="M7.37109 7.57843C7.37109 7.11336 7.74809 6.73633 8.21319 6.73633C8.67826 6.73633 9.05529 7.11336 9.05529 7.57843V11.789C9.05529 12.254 8.67826 12.6311 8.21319 12.6311C7.74809 12.6311 7.37109 12.254 7.37109 11.789V7.57843Z"
            fill="white" fill-opacity="0.9" />
    </g>
    <g filter="url(#filter4_d_0_1)">
        <path
            d="M10.5273 5.47296C10.5273 5.00786 10.9044 4.63086 11.3694 4.63086C11.8345 4.63086 12.2115 5.00786 12.2115 5.47296V11.7888C12.2115 12.2538 11.8345 12.6309 11.3694 12.6309C10.9044 12.6309 10.5273 12.2538 10.5273 11.7888V5.47296Z"
            fill="white" fill-opacity="0.7" />
    </g>
    <defs>
        <filter id="filter0_d_0_1" x="3.21191" y="2.86865" width="3.6842" height="11.2632" filterUnits="userSpaceOnUse"
            color-interpolation-filters="sRGB">
            <feFlood flood-opacity="0" result="BackgroundImageFix" />
            <feColorMatrix in="SourceAlpha" type="matrix" values="0 0 0 0 0 0 0 0 0 0 0 0 0 0 0 0 0 0 127 0"
                result="hardAlpha" />
            <feOffset dy="0.5" />
            <feGaussianBlur stdDeviation="0.5" />
            <feComposite in2="hardAlpha" operator="out" />
            <feColorMatrix type="matrix" values="0 0 0 0 0 0 0 0 0 0 0 0 0 0 0 0 0 0 0.12 0" />
            <feBlend mode="normal" in2="BackgroundImageFix" result="effect1_dropShadow_0_1" />
            <feBlend mode="normal" in="SourceGraphic" in2="effect1_dropShadow_0_1" result="shape" />
        </filter>
        <filter id="filter1_d_0_1" x="6.37109" y="6.23633" width="3.6842" height="7.89478" filterUnits="userSpaceOnUse"
            color-interpolation-filters="sRGB">
            <feFlood flood-opacity="0" result="BackgroundImageFix" />
            <feColorMatrix in="SourceAlpha" type="matrix" values="0 0 0 0 0 0 0 0 0 0 0 0 0 0 0 0 0 0 127 0"
                result="hardAlpha" />
            <feOffset dy="0.5" />
            <feGaussianBlur stdDeviation="0.5" />
            <feComposite in2="hardAlpha" operator="out" />
            <feColorMatrix type="matrix" values="0 0 0 0 0 0 0 0 0 0 0 0 0 0 0 0 0 0 0.12 0" />
            <feBlend mode="normal" in2="BackgroundImageFix" result="effect1_dropShadow_0_1" />
            <feBlend mode="normal" in="SourceGraphic" in2="effect1_dropShadow_0_1" result="shape" />
        </filter>
        <filter id="filter2_d_0_1" x="3.21191" y="2.86865" width="3.6842" height="11.2632" filterUnits="userSpaceOnUse"
            color-interpolation-filters="sRGB">
            <feFlood flood-opacity="0" result="BackgroundImageFix" />
            <feColorMatrix in="SourceAlpha" type="matrix" values="0 0 0 0 0 0 0 0 0 0 0 0 0 0 0 0 0 0 127 0"
                result="hardAlpha" />
            <feOffset dy="0.5" />
            <feGaussianBlur stdDeviation="0.5" />
            <feComposite in2="hardAlpha" operator="out" />
            <feColorMatrix type="matrix" values="0 0 0 0 0 0 0 0 0 0 0 0 0 0 0 0 0 0 0.12 0" />
            <feBlend mode="normal" in2="BackgroundImageFix" result="effect1_dropShadow_0_1" />
            <feBlend mode="normal" in="SourceGraphic" in2="effect1_dropShadow_0_1" result="shape" />
        </filter>
        <filter id="filter3_d_0_1" x="6.37109" y="6.23633" width="3.6842" height="7.89478" filterUnits="userSpaceOnUse"
            color-interpolation-filters="sRGB">
            <feFlood flood-opacity="0" result="BackgroundImageFix" />
            <feColorMatrix in="SourceAlpha" type="matrix" values="0 0 0 0 0 0 0 0 0 0 0 0 0 0 0 0 0 0 127 0"
                result="hardAlpha" />
            <feOffset dy="0.5" />
            <feGaussianBlur stdDeviation="0.5" />
            <feComposite in2="hardAlpha" operator="out" />
            <feColorMatrix type="matrix" values="0 0 0 0 0 0 0 0 0 0 0 0 0 0 0 0 0 0 0.12 0" />
            <feBlend mode="normal" in2="BackgroundImageFix" result="effect1_dropShadow_0_1" />
            <feBlend mode="normal" in="SourceGraphic" in2="effect1_dropShadow_0_1" result="shape" />
        </filter>
        <filter id="filter4_d_0_1" x="9.52734" y="4.13086" width="3.6842" height="10" filterUnits="userSpaceOnUse"
            color-interpolation-filters="sRGB">
            <feFlood flood-opacity="0" result="BackgroundImageFix" />
            <feColorMatrix in="SourceAlpha" type="matrix" values="0 0 0 0 0 0 0 0 0 0 0 0 0 0 0 0 0 0 127 0"
                result="hardAlpha" />
            <feOffset dy="0.5" />
            <feGaussianBlur stdDeviation="0.5" />
            <feComposite in2="hardAlpha" operator="out" />
            <feColorMatrix type="matrix" values="0 0 0 0 0 0 0 0 0 0 0 0 0 0 0 0 0 0 0.12 0" />
            <feBlend mode="normal" in2="BackgroundImageFix" result="effect1_dropShadow_0_1" />
            <feBlend mode="normal" in="SourceGraphic" in2="effect1_dropShadow_0_1" result="shape" />
        </filter>
    </defs>
</svg>