<svg width="231" height="48" viewBox="0 0 231 48" fill="none" xmlns="http://www.w3.org/2000/svg">
    <g clip-path="url(#clip0_6_2)">
        <path
            d="M0.425781 12.6316C0.425781 5.65535 6.08113 0 13.0574 0H35.7942C42.7704 0 48.4258 5.65535 48.4258 12.6316V35.3684C48.4258 42.3446 42.7704 48 35.7942 48H13.0574C6.08113 48 0.425781 42.3446 0.425781 35.3684V12.6316Z"
            fill="#465FFF" />
        <g filter="url(#filter0_d_6_2)">
            <path
                d="M13.0615 12.6323C13.0615 11.237 14.1926 10.106 15.5878 10.106C16.9831 10.106 18.1142 11.237 18.1142 12.6323V35.3691C18.1142 36.7644 16.9831 37.8954 15.5878 37.8954C14.1926 37.8954 13.0615 36.7644 13.0615 35.3691V12.6323Z"
                fill="white" />
        </g>
        <g filter="url(#filter1_d_6_2)">
            <path
                d="M22.5391 22.7353C22.5391 21.3401 23.6701 20.209 25.0654 20.209C26.4606 20.209 27.5917 21.3401 27.5917 22.7353V35.3669C27.5917 36.7621 26.4606 37.8932 25.0654 37.8932C23.6701 37.8932 22.5391 36.7621 22.5391 35.3669V22.7353Z"
                fill="white" fill-opacity="0.9" />
        </g>
        <g filter="url(#filter2_d_6_2)">
            <path
                d="M32.0078 16.4189C32.0078 15.0236 33.1389 13.8926 34.5341 13.8926C35.9294 13.8926 37.0604 15.0236 37.0604 16.4189V35.3663C37.0604 36.7615 35.9294 37.8926 34.5341 37.8926C33.1389 37.8926 32.0078 36.7615 32.0078 35.3663V16.4189Z"
                fill="white" fill-opacity="0.7" />
        </g>
        <path
            d="M57.5284 38V8.90909H69.0057C71.2121 8.90909 73.0919 9.33049 74.6449 10.1733C76.1979 11.0066 77.3816 12.1667 78.196 13.6534C79.0199 15.1307 79.4318 16.8352 79.4318 18.767C79.4318 20.6989 79.0152 22.4034 78.1818 23.8807C77.3485 25.358 76.1411 26.5085 74.5597 27.3324C72.9877 28.1562 71.0843 28.5682 68.8494 28.5682H61.5341V23.6392H67.8551C69.0388 23.6392 70.0142 23.4356 70.7812 23.0284C71.5578 22.6117 72.1354 22.0388 72.5142 21.3097C72.9025 20.571 73.0966 19.7235 73.0966 18.767C73.0966 17.8011 72.9025 16.9583 72.5142 16.2386C72.1354 15.5095 71.5578 14.946 70.7812 14.5483C70.0047 14.1411 69.0199 13.9375 67.8267 13.9375H63.679V38H57.5284ZM89.3643 8.90909V38H83.3132V8.90909H89.3643ZM100.433 38.4119C99.0412 38.4119 97.8007 38.1705 96.7116 37.6875C95.6226 37.1951 94.7609 36.4706 94.1264 35.5142C93.5014 34.5483 93.1889 33.3456 93.1889 31.9062C93.1889 30.6941 93.4115 29.6761 93.8565 28.8523C94.3016 28.0284 94.9077 27.3655 95.6747 26.8636C96.4418 26.3617 97.313 25.983 98.2884 25.7273C99.2732 25.4716 100.305 25.2917 101.385 25.1875C102.654 25.0549 103.677 24.9318 104.453 24.8182C105.23 24.6951 105.793 24.5152 106.143 24.2784C106.494 24.0417 106.669 23.6913 106.669 23.2273V23.142C106.669 22.2424 106.385 21.5464 105.817 21.054C105.258 20.5616 104.463 20.3153 103.43 20.3153C102.341 20.3153 101.475 20.5568 100.831 21.0398C100.187 21.5133 99.7609 22.1098 99.5526 22.8295L93.956 22.375C94.2401 21.0492 94.7988 19.9034 95.6321 18.9375C96.4654 17.9621 97.5402 17.214 98.8565 16.6932C100.182 16.1629 101.716 15.8977 103.459 15.8977C104.671 15.8977 105.831 16.0398 106.939 16.3239C108.056 16.608 109.046 17.0483 109.908 17.6449C110.779 18.2415 111.465 19.0085 111.967 19.946C112.469 20.8741 112.72 21.9867 112.72 23.2841V38H106.982V34.9744H106.811C106.461 35.6562 105.992 36.2576 105.405 36.7784C104.818 37.2898 104.112 37.6922 103.288 37.9858C102.464 38.2699 101.513 38.4119 100.433 38.4119ZM102.166 34.2358C103.056 34.2358 103.842 34.0606 104.524 33.7102C105.206 33.3504 105.741 32.8674 106.129 32.2614C106.518 31.6553 106.712 30.9687 106.712 30.2017V27.8864C106.522 28.0095 106.262 28.1231 105.93 28.2273C105.608 28.322 105.244 28.4119 104.837 28.4972C104.429 28.5729 104.022 28.6439 103.615 28.7102C103.208 28.767 102.839 28.8191 102.507 28.8665C101.797 28.9706 101.177 29.1364 100.646 29.3636C100.116 29.5909 99.7041 29.8987 99.4105 30.2869C99.117 30.6657 98.9702 31.1392 98.9702 31.7074C98.9702 32.5312 99.2685 33.161 99.8651 33.5966C100.471 34.0227 101.238 34.2358 102.166 34.2358ZM123.466 25.3864V38H117.415V16.1818H123.182V20.0312H123.438C123.92 18.7623 124.73 17.7585 125.866 17.0199C127.003 16.2718 128.381 15.8977 130 15.8977C131.515 15.8977 132.836 16.2292 133.963 16.892C135.09 17.5549 135.966 18.5019 136.591 19.733C137.216 20.9545 137.528 22.4129 137.528 24.108V38H131.477V25.1875C131.487 23.8523 131.146 22.8106 130.455 22.0625C129.763 21.3049 128.812 20.9261 127.599 20.9261C126.785 20.9261 126.065 21.1013 125.44 21.4517C124.825 21.8021 124.342 22.3134 123.991 22.9858C123.651 23.6487 123.475 24.4489 123.466 25.3864ZM142.298 38V16.1818H148.349V38H142.298ZM145.337 13.3693C144.438 13.3693 143.666 13.071 143.022 12.4744C142.388 11.8684 142.07 11.1439 142.07 10.3011C142.07 9.4678 142.388 8.75284 143.022 8.15625C143.666 7.55019 144.438 7.24716 145.337 7.24716C146.237 7.24716 147.004 7.55019 147.638 8.15625C148.282 8.75284 148.604 9.4678 148.604 10.3011C148.604 11.1439 148.282 11.8684 147.638 12.4744C147.004 13.071 146.237 13.3693 145.337 13.3693ZM159.247 25.3864V38H153.196V16.1818H158.963V20.0312H159.219C159.702 18.7623 160.511 17.7585 161.648 17.0199C162.784 16.2718 164.162 15.8977 165.781 15.8977C167.296 15.8977 168.617 16.2292 169.744 16.892C170.871 17.5549 171.747 18.5019 172.372 19.733C172.997 20.9545 173.31 22.4129 173.31 24.108V38H167.259V25.1875C167.268 23.8523 166.927 22.8106 166.236 22.0625C165.545 21.3049 164.593 20.9261 163.381 20.9261C162.566 20.9261 161.847 21.1013 161.222 21.4517C160.606 21.8021 160.123 22.3134 159.773 22.9858C159.432 23.6487 159.257 24.4489 159.247 25.3864ZM187.908 46.6364C185.948 46.6364 184.267 46.3665 182.866 45.8267C181.474 45.2964 180.366 44.572 179.542 43.6534C178.718 42.7348 178.183 41.7027 177.937 40.5568L183.533 39.804C183.704 40.2396 183.974 40.6468 184.343 41.0256C184.712 41.4044 185.2 41.7074 185.806 41.9347C186.422 42.1714 187.17 42.2898 188.05 42.2898C189.367 42.2898 190.451 41.9678 191.303 41.3239C192.165 40.6894 192.596 39.6241 192.596 38.1278V34.1364H192.34C192.075 34.7424 191.677 35.3153 191.147 35.8551C190.617 36.3949 189.935 36.8352 189.102 37.1761C188.268 37.517 187.274 37.6875 186.119 37.6875C184.48 37.6875 182.989 37.3087 181.644 36.5511C180.309 35.7841 179.244 34.6146 178.448 33.0426C177.662 31.4612 177.269 29.4631 177.269 27.0483C177.269 24.5767 177.672 22.5123 178.477 20.8551C179.281 19.1979 180.352 17.9574 181.687 17.1335C183.031 16.3097 184.504 15.8977 186.104 15.8977C187.326 15.8977 188.349 16.1061 189.173 16.5227C189.996 16.9299 190.659 17.4413 191.161 18.0568C191.673 18.6629 192.066 19.2595 192.34 19.8466H192.567V16.1818H198.576V38.2131C198.576 40.0691 198.121 41.6222 197.212 42.8722C196.303 44.1222 195.044 45.0597 193.434 45.6847C191.834 46.3191 189.992 46.6364 187.908 46.6364ZM188.036 33.142C189.012 33.142 189.835 32.9006 190.508 32.4176C191.19 31.9252 191.71 31.2244 192.07 30.3153C192.44 29.3968 192.624 28.2983 192.624 27.0199C192.624 25.7415 192.444 24.6335 192.085 23.696C191.725 22.7491 191.204 22.0152 190.522 21.4943C189.84 20.9735 189.012 20.7131 188.036 20.7131C187.042 20.7131 186.204 20.983 185.522 21.5227C184.84 22.053 184.324 22.7917 183.974 23.7386C183.623 24.6856 183.448 25.7794 183.448 27.0199C183.448 28.2794 183.623 29.3684 183.974 30.2869C184.334 31.196 184.85 31.9015 185.522 32.4034C186.204 32.8958 187.042 33.142 188.036 33.142ZM213.249 38.4261C211.043 38.4261 209.135 37.9574 207.525 37.0199C205.924 36.0729 204.689 34.7566 203.817 33.071C202.946 31.3759 202.511 29.411 202.511 27.1761C202.511 24.9223 202.946 22.9527 203.817 21.267C204.689 19.572 205.924 18.2557 207.525 17.3182C209.135 16.3712 211.043 15.8977 213.249 15.8977C215.456 15.8977 217.359 16.3712 218.96 17.3182C220.569 18.2557 221.81 19.572 222.681 21.267C223.552 22.9527 223.988 24.9223 223.988 27.1761C223.988 29.411 223.552 31.3759 222.681 33.071C221.81 34.7566 220.569 36.0729 218.96 37.0199C217.359 37.9574 215.456 38.4261 213.249 38.4261ZM213.278 33.7386C214.281 33.7386 215.12 33.4545 215.792 32.8864C216.464 32.3087 216.971 31.5227 217.312 30.5284C217.662 29.5341 217.837 28.4025 217.837 27.1335C217.837 25.8646 217.662 24.733 217.312 23.7386C216.971 22.7443 216.464 21.9583 215.792 21.3807C215.12 20.803 214.281 20.5142 213.278 20.5142C212.264 20.5142 211.412 20.803 210.721 21.3807C210.039 21.9583 209.523 22.7443 209.173 23.7386C208.832 24.733 208.661 25.8646 208.661 27.1335C208.661 28.4025 208.832 29.5341 209.173 30.5284C209.523 31.5227 210.039 32.3087 210.721 32.8864C211.412 33.4545 212.264 33.7386 213.278 33.7386Z"
            fill="white" />
    </g>
    <defs>
        <filter id="filter0_d_6_2" x="12.0615" y="9.60596" width="7.05267" height="29.7894" filterUnits="userSpaceOnUse"
            color-interpolation-filters="sRGB">
            <feFlood flood-opacity="0" result="BackgroundImageFix" />
            <feColorMatrix in="SourceAlpha" type="matrix" values="0 0 0 0 0 0 0 0 0 0 0 0 0 0 0 0 0 0 127 0"
                result="hardAlpha" />
            <feOffset dy="0.5" />
            <feGaussianBlur stdDeviation="0.5" />
            <feComposite in2="hardAlpha" operator="out" />
            <feColorMatrix type="matrix" values="0 0 0 0 0 0 0 0 0 0 0 0 0 0 0 0 0 0 0.12 0" />
            <feBlend mode="normal" in2="BackgroundImageFix" result="effect1_dropShadow_6_2" />
            <feBlend mode="normal" in="SourceGraphic" in2="effect1_dropShadow_6_2" result="shape" />
        </filter>
        <filter id="filter1_d_6_2" x="21.5391" y="19.709" width="7.05261" height="19.6842" filterUnits="userSpaceOnUse"
            color-interpolation-filters="sRGB">
            <feFlood flood-opacity="0" result="BackgroundImageFix" />
            <feColorMatrix in="SourceAlpha" type="matrix" values="0 0 0 0 0 0 0 0 0 0 0 0 0 0 0 0 0 0 127 0"
                result="hardAlpha" />
            <feOffset dy="0.5" />
            <feGaussianBlur stdDeviation="0.5" />
            <feComposite in2="hardAlpha" operator="out" />
            <feColorMatrix type="matrix" values="0 0 0 0 0 0 0 0 0 0 0 0 0 0 0 0 0 0 0.12 0" />
            <feBlend mode="normal" in2="BackgroundImageFix" result="effect1_dropShadow_6_2" />
            <feBlend mode="normal" in="SourceGraphic" in2="effect1_dropShadow_6_2" result="shape" />
        </filter>
        <filter id="filter2_d_6_2" x="31.0078" y="13.3926" width="7.05261" height="26" filterUnits="userSpaceOnUse"
            color-interpolation-filters="sRGB">
            <feFlood flood-opacity="0" result="BackgroundImageFix" />
            <feColorMatrix in="SourceAlpha" type="matrix" values="0 0 0 0 0 0 0 0 0 0 0 0 0 0 0 0 0 0 127 0"
                result="hardAlpha" />
            <feOffset dy="0.5" />
            <feGaussianBlur stdDeviation="0.5" />
            <feComposite in2="hardAlpha" operator="out" />
            <feColorMatrix type="matrix" values="0 0 0 0 0 0 0 0 0 0 0 0 0 0 0 0 0 0 0.12 0" />
            <feBlend mode="normal" in2="BackgroundImageFix" result="effect1_dropShadow_6_2" />
            <feBlend mode="normal" in="SourceGraphic" in2="effect1_dropShadow_6_2" result="shape" />
        </filter>
        <clipPath id="clip0_6_2">
            <rect width="231" height="48" fill="white" />
        </clipPath>
    </defs>
</svg>