<svg width="78" height="78" viewBox="0 0 78 78" fill="none" xmlns="http://www.w3.org/2000/svg">
    <rect width="78" height="78" rx="12" fill="white" />
    <path
        d="M65.98 23.4996C59.4789 17.0017 57.7414 15.2649 57.512 15.0356C57.6338 15.1573 58.1212 15.6445 58.1892 15.7125C58.1058 15.6291 57.2972 14.8209 54.5215 12.0466C52.5955 10.1215 49.6784 13.0333 51.6064 14.9603L52.1561 15.5097L48.4077 19.2561L45.5558 16.4056C43.6298 14.4805 40.7126 17.3923 42.6407 19.3193L45.4927 22.1699L39.6224 28.0385C39.5654 28.0377 39.5084 28.0371 39.4514 28.0371L31.9649 20.5545C31.16 19.75 29.8548 19.75 29.0498 20.5545L21.6069 27.9939C20.8019 28.7984 20.8019 30.103 21.6069 30.9076L29.0943 38.3912C29.0939 38.4481 29.0938 38.5047 29.0942 38.5616L23.4992 44.1536C22.6944 44.958 22.6947 46.2633 23.4992 47.0673L25.7632 49.3303L12.0471 63.0398C10.1212 64.9647 13.0341 67.881 14.9622 65.9535L28.6783 52.244L30.9421 54.507C31.747 55.3116 33.0529 55.311 33.8572 54.507L39.4417 48.9251C39.5049 48.9251 39.5682 48.9247 39.6312 48.9235L47.1098 56.3984C47.9147 57.203 49.2205 57.2023 50.0249 56.3984L57.4679 48.959C58.2729 48.1545 58.2729 46.8499 57.4679 46.0453L49.9889 38.5701C49.9889 38.5084 49.9884 38.4466 49.9874 38.3845L55.8516 32.5241L58.7037 35.3748C60.6293 37.2995 63.5474 34.3887 61.6188 32.4611L58.7667 29.6104L62.5152 25.8638L63.0649 26.4133C63.4674 26.8157 63.9949 27.0168 64.5225 27.0168C66.3422 27.0168 67.2823 24.8013 65.98 23.4996ZM41.6367 40.5747C39.8712 42.3395 36.8494 41.2596 36.5854 38.793C36.4089 37.164 37.5929 35.6999 39.2207 35.5259C42.0033 35.2243 43.6052 38.607 41.6367 40.5747ZM58.1945 15.7179C58.1975 15.7209 58.1977 15.7211 58.1945 15.7179V15.7179ZM55.8517 26.6967L51.3228 22.1699L55.0712 18.4235L59.6001 22.9502L55.8517 26.6967Z"
        fill="#009D59" />
</svg>