<svg width="1767" height="621" viewBox="0 0 1767 621" fill="none" xmlns="http://www.w3.org/2000/svg">
<g clip-path="url(#clip0_2526_6470)">
<path fill-rule="evenodd" clip-rule="evenodd" d="M650.42 561.4C650.42 581.87 633.37 598.87 612.73 598.7C593.42 598.55 575.77 582.45 576.01 561.42C576.25 539.87 592 524.33 613.29 524.35C633.98 524.37 649.17 538.2 650.42 561.4Z" fill="#2C3884"/>
<path fill-rule="evenodd" clip-rule="evenodd" d="M806.481 561.41C806.481 581.87 789.421 598.87 768.791 598.7C749.481 598.55 731.831 582.44 732.071 561.42C732.321 539.86 748.071 524.33 769.351 524.35C790.031 524.37 805.231 538.19 806.481 561.41Z" fill="#2C3884"/>
<path fill-rule="evenodd" clip-rule="evenodd" d="M556.779 561.61C558.149 581.16 540.019 599.14 519.749 598.73C500.939 598.35 482.719 581.81 483.039 560.91C483.349 540.85 500.419 524.05 520.149 524.18C540.679 524.32 557.899 540.72 556.779 561.6V561.61Z" fill="#2C3884"/>
<path d="M552.92 64.3L529.82 76.18C524.54 67.38 510.02 59.02 493.3 59.02C471.74 59.02 461.4 68.04 461.4 79.48C461.4 92.9 477.24 96.64 495.72 98.84C527.84 102.8 557.76 111.16 557.76 147.9C557.76 182.22 527.4 196.96 493.08 196.96C461.62 196.96 437.42 187.28 425.98 159.12L450.18 146.58C457 163.52 474.82 171 493.52 171C511.78 171 528.94 164.62 528.94 147.9C528.94 133.38 513.76 127.44 493.3 125.24C461.84 121.5 432.8 113.14 432.8 78.6C432.8 46.92 464.04 33.94 492.42 33.72C516.4 33.72 541.26 40.54 552.92 64.3ZM702.549 193L689.569 163.96H609.049L595.849 193H564.389L633.469 39H665.149L734.229 193H702.549ZM677.909 136.9L649.309 71.34L620.709 136.9H677.909ZM772.734 126.34V165.94H817.174C829.054 165.94 845.994 161.98 845.994 147.46C845.994 133.6 829.054 126.34 817.174 126.34H772.734ZM772.734 65.4V100.82H817.174C835.434 100.82 841.374 93.12 841.374 84.32C841.374 77.28 835.654 65.4 817.174 65.4H772.734ZM817.174 39C847.534 39 870.194 52.64 870.194 83.66C870.194 95.54 864.474 106.98 850.174 113.36C868.214 118.86 874.814 138 874.814 147.68C874.814 182 849.074 193 817.174 193C792.754 193 768.554 193 744.134 193V39C768.334 39 792.754 39 817.174 39ZM1010.03 164.4V193H894.75C894.75 141.74 894.75 90.26 894.75 39H1010.03V67.16H923.57V102.58H1006.95V129.64H923.57V164.4H1010.03ZM1147.32 164.4V193H1032.04C1032.04 141.74 1032.04 90.26 1032.04 39H1147.32V67.16H1060.86V102.58H1144.24V129.64H1060.86V164.4H1147.32ZM1169.76 39H1198.8V166.16H1278V193H1169.76V39Z" fill="#E5C480"/>
<path fill-rule="evenodd" clip-rule="evenodd" d="M0 366.8V366.14C0 337.6 0.01 309.06 0 280.52C0 279.97 0.18 279.62 0.61 279.27C2.75 277.53 4.86 275.75 6.98 274C9.12 272.23 11.28 270.48 13.43 268.71C15.09 267.34 16.73 265.96 18.38 264.59C20.03 263.22 21.7 261.87 23.36 260.5C24.55 259.52 25.72 258.53 26.9 257.55C28.07 256.58 29.24 255.62 30.4 254.66C32.11 253.25 33.81 251.83 35.52 250.42C36.65 249.48 37.79 248.55 38.92 247.62C40.17 246.58 41.43 245.54 42.68 244.51C43.81 243.57 44.94 242.64 46.08 241.7C47.27 240.72 48.45 239.75 49.64 238.78C50.91 237.73 52.19 236.69 53.46 235.63C54.64 234.65 55.82 233.66 57 232.68C58.13 231.74 59.27 230.81 60.4 229.87C61.65 228.83 62.91 227.79 64.16 226.76C65.35 225.78 66.54 224.81 67.72 223.84C69.36 222.49 70.99 221.13 72.63 219.77C74.36 218.34 76.08 216.92 77.81 215.5C79 214.52 80.2 213.56 81.36 212.55C83.78 210.46 86.32 208.55 89.3 207.33C90.34 206.91 91.4 206.54 92.47 206.2C93.34 205.92 94.24 205.7 95.13 205.5C95.72 205.37 96.33 205.25 96.93 205.23C98.82 205.15 100.71 204.85 102.62 205.17C103.55 205.33 104.51 205.33 105.44 205.47C106.04 205.55 106.63 205.73 107.21 205.9C108.35 206.24 109.5 206.55 110.62 206.97C112.74 207.77 114.74 208.82 116.53 210.2C118.37 211.62 120.15 213.13 121.95 214.6C123.61 215.96 125.28 217.32 126.93 218.69C128.62 220.09 130.3 221.5 131.99 222.89C133.61 224.23 135.24 225.56 136.86 226.9C138.55 228.29 140.24 229.7 141.93 231.09C143.6 232.47 145.28 233.84 146.96 235.23C148.09 236.16 149.22 237.1 150.35 238.04C151.6 239.08 152.86 240.11 154.12 241.14C155.27 242.09 156.42 243.05 157.57 244C158.81 245.02 160.04 246.04 161.28 247.07C162.45 248.03 163.61 249 164.78 249.96C165.96 250.94 167.15 251.92 168.33 252.9C169.55 253.91 170.76 254.92 171.99 255.93C173.17 256.91 174.36 257.89 175.55 258.86C176.75 259.85 177.95 260.85 179.16 261.84C180.29 262.77 181.43 263.71 182.56 264.64C183.81 265.68 185.07 266.72 186.32 267.75C188.01 269.15 189.71 270.54 191.4 271.93C192.5 272.83 193.6 273.74 194.7 274.65C195.94 275.67 197.17 276.7 198.4 277.73C199.15 278.35 199.89 278.97 200.65 279.58C200.92 279.8 201.05 280.06 201.01 280.4C200.99 280.56 201.01 280.72 201.01 280.87V366.88C201.01 366.88 200.92 366.93 200.87 366.96C200.46 366.63 200.04 366.31 199.64 365.97C196.95 363.69 194.26 361.41 191.57 359.12C189.64 357.48 187.73 355.82 185.8 354.18C183.92 352.59 182.03 351.01 180.15 349.42C178.24 347.8 176.34 346.16 174.42 344.53C173.06 343.37 171.68 342.24 170.32 341.08C168.96 339.92 167.61 338.76 166.25 337.6C164.89 336.44 163.52 335.29 162.16 334.14C160.87 333.04 159.57 331.95 158.28 330.85C156.83 329.62 155.39 328.39 153.94 327.16C152.56 325.99 151.19 324.81 149.81 323.64C148.54 322.56 147.26 321.48 145.98 320.4C144.52 319.16 143.05 317.91 141.59 316.67C140.33 315.6 139.08 314.53 137.82 313.46C136.3 312.17 134.79 310.88 133.27 309.6C131.94 308.48 130.61 307.35 129.28 306.23C127.88 305.05 126.49 303.86 125.09 302.67C123.76 301.54 122.44 300.42 121.11 299.29C119.68 298.07 118.25 296.86 116.82 295.64C115.46 294.49 114.09 293.34 112.72 292.18C111.37 291.04 110.02 289.91 108.7 288.75C107.34 287.56 105.79 286.75 104.06 286.21C102.88 285.84 101.68 285.7 100.47 285.68C98.05 285.66 95.79 286.26 93.74 287.58C93.08 288.01 92.48 288.52 91.87 289.03C89.97 290.63 88.09 292.26 86.2 293.87C84.29 295.49 82.36 297.1 80.44 298.72C79.09 299.86 77.77 301.02 76.42 302.16C75.02 303.35 73.62 304.52 72.22 305.7C70.91 306.81 69.61 307.93 68.3 309.05C66.89 310.25 65.47 311.44 64.05 312.64C62.77 313.72 61.5 314.81 60.23 315.89C58.77 317.13 57.3 318.37 55.83 319.62C54.54 320.72 53.25 321.82 51.96 322.92C50.51 324.15 49.06 325.37 47.61 326.6C46.28 327.73 44.96 328.86 43.63 329.98C42.22 331.18 40.8 332.37 39.38 333.57C38.05 334.7 36.73 335.83 35.4 336.95C33.97 338.16 32.54 339.38 31.11 340.59C29.82 341.69 28.52 342.79 27.23 343.88C25.78 345.11 24.33 346.34 22.89 347.57C21.55 348.71 20.21 349.86 18.87 351C17.51 352.16 16.14 353.31 14.78 354.46C13.42 355.62 12.06 356.77 10.7 357.93C9.3 359.12 7.91 360.3 6.51 361.48C5.17 362.62 3.82 363.76 2.48 364.9C1.71 365.55 0.94 366.21 0.17 366.86C0.12 366.84 0.06 366.82 0.01 366.79L0 366.8Z" fill="#E5C480"/>
<path d="M556.381 561.27C556.381 540.76 539.751 524.11 519.251 524.11C498.751 524.11 482.121 540.76 482.121 561.27C482.121 581.78 498.751 598.43 519.251 598.43C539.751 598.43 556.381 581.79 556.381 561.27ZM648.911 561.27C648.911 540.76 632.281 524.11 611.781 524.11C591.281 524.11 574.651 540.76 574.651 561.27C574.651 581.78 591.281 598.43 611.781 598.43C632.281 598.43 648.911 581.79 648.911 561.27ZM804.901 561.27C804.901 540.76 788.261 524.11 767.771 524.11C747.281 524.11 730.641 540.76 730.641 561.27C730.641 581.78 747.281 598.43 767.771 598.43C788.261 598.43 804.901 581.79 804.901 561.27ZM1345.87 471.29V219.8H1276.56V403.81H1180.69V235.38H1113.54V403.81H1017.45V235.07H950.781V403.81H804.251V219.8H736.731V403.81H599.231V219.8H531.581V403.81H395.371V30.6201H327.961V536.33C327.961 545.68 320.381 553.27 311.041 553.27H150.301C140.961 553.27 133.381 545.68 133.381 536.33V349.23H66.8906V557.35C66.8906 592.41 95.3206 620.86 130.341 620.86H331.371C366.391 620.86 394.821 592.41 394.821 557.35V471.3H1345.87V471.29Z" fill="#2F2E7C"/>
</g>
<defs>
<clipPath id="clip0_2526_6470">
<rect width="1766.51" height="620.86" fill="white"/>
</clipPath>
</defs>
</svg>
